<?xml version="1.0" encoding="UTF-8" standalone="no"?>
<svg
   xmlns:dc="http://purl.org/dc/elements/1.1/"
   xmlns:cc="http://creativecommons.org/ns#"
   xmlns:rdf="http://www.w3.org/1999/02/22-rdf-syntax-ns#"
   xmlns:svg="http://www.w3.org/2000/svg"
   xmlns="http://www.w3.org/2000/svg"
   id="svg9"
   xml:space="preserve"
   viewBox="0 0 1024 768"
   y="0px"
   x="0px"
   version="1.1"><metadata
     id="metadata15"><rdf:RDF><cc:Work
         rdf:about=""><dc:format>image/svg+xml</dc:format><dc:type
           rdf:resource="http://purl.org/dc/dcmitype/StillImage" /></cc:Work></rdf:RDF></metadata><defs
     id="defs13" /><g
     id="logo-group"><path
       stroke-miterlimit="2"
       d="m 269.37,426.95 h -17.907 v -85.835 h 49.2 v 14.913 H 269.37 v 22.134 h 29.121 v 14.854 H 269.37 Z"
       style="font-variant-ligatures:none;fill:#ff5a00;stroke-width:0;stroke-miterlimit:2"
       id="path376633" /><path
       stroke-miterlimit="2"
       d="m 392.33,341.11 v 55.541 q 0,9.5112 -4.2859,16.674 -4.2272,7.1627 -12.271,10.979 -8.0434,3.8162 -19.022,3.8162 -16.556,0 -25.715,-8.4544 -9.1589,-8.5131 -9.1589,-23.25 v -55.306 h 18.14 v 52.546 q 0,9.9222 3.9924,14.56 3.9923,4.6382 13.21,4.6382 8.9241,0 12.916,-4.6382 4.0511,-4.6969 4.0511,-14.678 v -52.429 z"
       style="font-variant-ligatures:none;fill:#ff5a00;stroke-width:0;stroke-miterlimit:2"
       id="path376635" /><path
       stroke-miterlimit="2"
       d="m 450.94,378.75 h 34.052 v 44.503 q -8.2782,2.7007 -15.617,3.7575 -7.2802,1.1155 -14.913,1.1155 -19.433,0 -29.708,-11.39 -10.216,-11.449 -10.216,-32.819 0,-20.784 11.86,-32.408 11.918,-11.625 32.996,-11.625 13.21,0 25.481,5.284 l -6.0472,14.56 q -9.3938,-4.6969 -19.551,-4.6969 -11.801,0 -18.905,7.926 -7.104,7.926 -7.104,21.312 0,13.973 5.695,21.371 5.7537,7.3389 16.674,7.3389 5.695,0 11.566,-1.1742 v -17.907 h -16.263 z"
       style="font-variant-ligatures:none;fill:#ff5a00;stroke-width:0;stroke-miterlimit:2"
       id="path376637" /><path
       stroke-miterlimit="2"
       d="m 689.5,426.95 h -63.878 v -11.801 l 41.156,-59.004 h -40.041 v -15.03 h 61.646 v 11.742 l -41.098,59.063 h 42.213 z"
       style="font-variant-ligatures:none;fill:#ff5a00;stroke-width:0;stroke-miterlimit:2"
       id="path376641" /><path
       stroke-miterlimit="2"
       d="m 735.02,376.46 17.907,-35.344 h 19.609 l -28.475,52.429 v 33.407 h -18.083 v -32.819 l -28.475,-53.016 h 19.727 z"
       style="font-variant-ligatures:none;fill:#ff5a00;stroke-width:0;stroke-miterlimit:2"
       id="path376643" /><path
       style="fill:#fffefe;stroke-width:0.79803002"
       d="m 558.08,342.19 c -0.24715,0.003 -0.47876,0.0106 -0.51559,0.0182 -0.0364,0.007 -0.21608,0.0373 -0.39933,0.0666 -0.18281,0.0297 -0.50938,0.11138 -0.72502,0.18148 -0.21608,0.0705 -0.57505,0.2223 -0.79779,0.33722 -0.22344,0.11491 -0.55622,0.3232 -0.73977,0.46285 -0.19632,0.14924 -11.425,11.349 -27.205,27.134 -21.561,21.572 -26.913,26.943 -27.081,27.207 -0.11581,0.17749 -0.29683,0.49696 -0.40332,0.70993 -0.10604,0.21254 -0.25558,0.5746 -0.33233,0.80402 -0.0763,0.2294 -0.17749,0.60877 -0.22452,0.84305 -0.047,0.23428 -0.0976,0.70549 -0.11182,1.0472 -0.0191,0.45169 -0.008,0.74232 0.0422,1.0649 0.0373,0.24404 0.12113,0.6132 0.18591,0.82086 0.0648,0.20721 0.19434,0.53068 0.28752,0.71881 0.0932,0.18769 0.23428,0.43749 0.31326,0.55463 0.079,0.11713 0.32657,0.39268 0.54975,0.61231 0.25646,0.25247 0.536,0.47477 0.75874,0.60433 0.1939,0.11271 0.48852,0.25868 0.65447,0.32435 0.16639,0.0657 0.45081,0.15707 0.63228,0.20366 0.18147,0.0461 0.55463,0.10383 0.82931,0.12735 0.3075,0.0267 0.67399,0.0279 0.95485,0.003 0.2507,-0.0217 0.57105,-0.0603 0.7117,-0.0861 0.14111,-0.0253 0.40511,-0.087 0.58703,-0.13666 0.18192,-0.0497 0.47078,-0.14244 0.6416,-0.20588 0.17083,-0.0639 0.46057,-0.19079 0.64338,-0.2822 0.18325,-0.0914 0.52269,-0.28974 0.7543,-0.4406 l 0.42136,-0.27931 24.803,-24.797 24.805,-24.8 25.002,25.005 c 18.042,18.042 25.092,25.066 25.322,25.226 0.17571,0.12202 0.46545,0.29063 0.64338,0.37449 0.17837,0.0839 0.49828,0.20233 0.7117,0.26357 0.21343,0.0608 0.59768,0.13222 0.85414,0.1584 0.33145,0.0337 0.60167,0.0337 0.93401,0 0.25692,-0.0262 0.65137,-0.0958 0.87633,-0.15485 0.22451,-0.0586 0.53821,-0.16019 0.69706,-0.22497 0.1584,-0.0648 0.38825,-0.16861 0.51027,-0.23028 0.12201,-0.0617 0.39134,-0.22407 0.59855,-0.36117 0.20677,-0.13667 0.57949,-0.4486 0.82708,-0.69263 0.28176,-0.27732 0.5471,-0.59191 0.70683,-0.83858 0.14065,-0.21697 0.331,-0.56661 0.42329,-0.77648 0.0923,-0.20988 0.20855,-0.54133 0.25869,-0.73656 0.0497,-0.19523 0.11048,-0.49473 0.13488,-0.66556 0.0239,-0.17083 0.0444,-0.48053 0.0448,-0.68774 0,-0.20766 -0.0302,-0.56618 -0.0674,-0.79734 -0.0377,-0.23118 -0.12691,-0.59457 -0.19835,-0.80801 -0.071,-0.21298 -0.20809,-0.54266 -0.30437,-0.733 -0.0963,-0.19035 -0.27954,-0.49607 -0.40688,-0.67888 -0.16152,-0.23206 -1.2207,-1.3214 -3.4982,-3.598 -1.7965,-1.7961 -13.899,-13.887 -26.894,-26.869 -17.32,-17.303 -23.732,-23.682 -24.018,-23.894 -0.21431,-0.15929 -0.56396,-0.38159 -0.77649,-0.49341 -0.21209,-0.11225 -0.56572,-0.264 -0.78536,-0.33766 -0.22008,-0.0737 -0.57682,-0.16462 -0.79379,-0.20233 -0.21653,-0.0377 -0.5959,-0.0666 -0.84256,-0.0634 z m 0.2609,60.362 c -0.46368,-0.008 -0.93266,-0.007 -1.0427,0.002 -0.1096,0.009 -0.38913,0.0386 -0.62119,0.0648 -0.23162,0.0262 -0.71704,0.10649 -1.0786,0.17837 -0.36118,0.0719 -0.98015,0.23783 -1.3755,0.36872 -0.3949,0.1309 -0.92779,0.33234 -1.1834,0.4477 -0.25602,0.11536 -0.61542,0.29151 -0.79867,0.39135 -0.18369,0.0998 -0.4934,0.28043 -0.68863,0.40155 -0.19524,0.12114 -0.54443,0.35985 -0.77649,0.53113 -0.23161,0.17082 -0.60211,0.46589 -0.82309,0.6549 -0.22097,0.18946 -0.58037,0.53112 -0.79868,0.75963 -0.21874,0.22895 -0.53378,0.5848 -0.70061,0.79157 -0.16683,0.20677 -0.48319,0.64515 -0.70327,0.9748 -0.22008,0.32923 -0.56661,0.93841 -0.77028,1.3533 -0.20366,0.41486 -0.44237,0.95133 -0.53023,1.1918 -0.0883,0.24049 -0.23028,0.68997 -0.31548,0.99834 -0.0847,0.30838 -0.20233,0.84041 -0.2609,1.182 -0.0581,0.34165 -0.12867,0.95445 -0.15618,1.3618 -0.0368,0.5391 -0.0377,0.93665 -0.003,1.4642 0.0262,0.39801 0.0883,0.97128 0.13755,1.2739 0.0497,0.30305 0.14908,0.78536 0.22185,1.0724 0.0723,0.28707 0.21475,0.7583 0.31592,1.0472 0.1016,0.28841 0.28752,0.75475 0.41398,1.0361 0.12601,0.28087 0.35496,0.73035 0.50893,0.99834 0.15352,0.26801 0.43128,0.70417 0.61675,0.96954 0.18547,0.26533 0.51914,0.69484 0.74144,0.95397 0.22274,0.25956 0.61586,0.67443 0.87368,0.92157 0.2578,0.24759 0.6558,0.59546 0.88343,0.77249 0.22806,0.17704 0.6345,0.46723 0.90297,0.64426 0.26845,0.17705 0.71881,0.44327 1.0006,0.59102 0.28175,0.1482 0.72369,0.35763 0.9819,0.46589 0.25823,0.10827 0.68686,0.26667 0.95173,0.35186 0.26534,0.0852 0.70061,0.20811 0.9673,0.27333 0.26667,0.0652 0.74587,0.15751 1.0649,0.20588 0.32035,0.0479 0.95708,0.0989 1.423,0.11403 0.53156,0.0168 1.0644,0.006 1.442,-0.0279 0.32967,-0.0298 0.8586,-0.10206 1.1758,-0.16019 0.31725,-0.0581 0.83642,-0.17703 1.1536,-0.26445 0.31725,-0.087 0.88119,-0.27953 1.2526,-0.42818 0.37183,-0.14864 0.93091,-0.40864 1.2424,-0.57859 0.31193,-0.16949 0.7654,-0.44015 1.0081,-0.60167 0.2427,-0.16106 0.64204,-0.4539 0.88741,-0.64958 0.24537,-0.19612 0.69617,-0.60699 1.0018,-0.91271 0.30571,-0.30572 0.71659,-0.75652 0.91271,-1.0018 0.19568,-0.24537 0.48808,-0.64471 0.64915,-0.88742 0.16107,-0.2427 0.41353,-0.65935 0.56129,-0.92556 0.14775,-0.26622 0.36117,-0.69572 0.4752,-0.95397 0.1136,-0.25823 0.30217,-0.75962 0.41887,-1.1132 0.11669,-0.35364 0.26312,-0.87321 0.32524,-1.1536 0.0621,-0.28087 0.14864,-0.7401 0.19256,-1.0205 0.0626,-0.39978 0.0799,-0.77426 0.0799,-1.7304 0,-0.95619 -0.0173,-1.3306 -0.0799,-1.7305 -0.0439,-0.28087 -0.13044,-0.7401 -0.19212,-1.0205 -0.0621,-0.28087 -0.20899,-0.80003 -0.32702,-1.1536 -0.11802,-0.35364 -0.3239,-0.8879 -0.45835,-1.186 -0.13444,-0.29862 -0.34919,-0.72812 -0.47787,-0.95397 -0.12867,-0.22629 -0.36961,-0.61542 -0.536,-0.86475 -0.16639,-0.24892 -0.46722,-0.65802 -0.66866,-0.90872 -0.20144,-0.2507 -0.5959,-0.68597 -0.8768,-0.96682 -0.28086,-0.28087 -0.72013,-0.67887 -0.97616,-0.8839 -0.25601,-0.20543 -0.70504,-0.53112 -0.99786,-0.72368 -0.29284,-0.19301 -0.87185,-0.51825 -1.2868,-0.72324 -0.41486,-0.20456 -0.94599,-0.44238 -1.1807,-0.52802 -0.23427,-0.0856 -0.60388,-0.2072 -0.82086,-0.27066 -0.21696,-0.0634 -0.61497,-0.16284 -0.8843,-0.22141 -0.26933,-0.059 -0.72857,-0.13887 -1.0205,-0.17792 -0.29196,-0.039 -0.91008,-0.0777 -1.3737,-0.0861 z"
       id="icon" /></g></svg>