<?xml version="1.0"?>

<svg version="1.1" id="Layer_1" xmlns="http://www.w3.org/2000/svg" xmlns:xlink="http://www.w3.org/1999/xlink" x="0px" y="0px" viewBox="0 0 300 50.2" style="enable-background:new 0 0 300 50.2;" xml:space="preserve">

<g>
&#x9;<polyline id="Fill-1" fill="#1C75BC" points="0,25.9 0,49.7 26.7,49.7 26.8,25.9 0,25.9 &#x9;"></polyline>
&#x9;<polyline id="Fill-2" fill="#15528A" points="40.2,24.5 48.1,8.4 48.1,0.5 28.2,0.5 28.2,24.5 40.2,24.5 &#x9;"></polyline>
&#x9;<polyline id="Fill-3" fill="#15528A" points="28.1,49.1 39.5,25.9 28.2,25.9 28.1,49.1 &#x9;"></polyline>
&#x9;<polyline id="Fill-4" fill="#2BA9E0" points="26.8,0.5 0,0.5 0,24.5 26.8,24.5 26.8,0.5 &#x9;"></polyline>
&#x9;<path id="Fill-5" fill="#2D2D33" d="M86.3,14c0-1-0.6-1.7-1.7-2.2c-0.9-0.4-1.9-0.6-3-0.6h-13v14.9h13c1.1,0,2.1-0.2,2.9-0.5&#xA;&#x9;&#x9;c1.2-0.5,1.7-1.2,1.7-2.1c0-0.9-0.6-1.6-1.7-2.1c-0.9-0.4-1.8-0.5-2.9-0.5h-5.4v-4h5.4c1.1,0,2.1-0.2,3-0.6&#xA;&#x9;&#x9;C85.7,15.7,86.3,14.9,86.3,14 M90.1,23.4c0,1-0.2,1.9-0.7,2.8C87.9,28.7,85.1,30,81,30H64.7V7.2H81c3.9,0,6.6,1.2,8.2,3.6&#xA;&#x9;&#x9;c0.6,1,0.9,2,0.9,3.1c0,1.9-0.8,3.5-2.4,4.8C89.3,20,90.1,21.6,90.1,23.4"></path>
&#x9;<path id="Fill-6" fill="#2D2D33" d="M123.1,7.3l-13,20.9c-0.9,1.5-1.7,2.2-2.5,2.2c-0.7,0-1.5-0.7-2.4-2.2L92.4,7.3h5.1l10.2,16.9&#xA;&#x9;&#x9;L118,7.3H123.1"></path>
&#x9;<path id="Fill-7" fill="#2D2D33" d="M150.4,30.1h-14.5c-3.3,0-6.1-1.1-8.2-3.3c-2.2-2.2-3.3-5-3.3-8.3c0-3.3,1.1-6,3.2-8.1&#xA;&#x9;&#x9;c2.1-2,4.9-3.1,8.3-3.1h12.9v4h-12.9c-2.2,0-4,0.7-5.4,2.1c-1.4,1.4-2.1,3.2-2.1,5.4c0,2.2,0.7,4,2.1,5.3c1.4,1.4,3.2,2,5.4,2h10.5&#xA;&#x9;&#x9;v-5h-10.8v-3.6h14.8V30.1"></path>
&#x9;<polyline id="Fill-8" fill="#2D2D33" points="174.1,30.1 154.5,30.1 154.5,7.3 158.4,7.3 158.4,26.1 174.1,26.1 174.1,30.1 &#x9;"></polyline>
&#x9;<path id="Fill-9" fill="#2D2D33" d="M207.1,30.1l-5.1,0l-3.8-6.4h-10.8l2.4-3.9h6l-4-6.6L181.5,30h-5.1l12.4-20.6&#xA;&#x9;&#x9;c0.3-0.5,0.7-1,1.3-1.5c0.7-0.5,1.3-0.8,1.8-0.8c0.6,0,1.2,0.2,1.8,0.7c0.5,0.4,1,0.9,1.3,1.5L207.1,30.1"></path>
&#x9;<path id="Fill-10" fill="#2D2D33" d="M233.1,30.1h-21.3c-1.7,0-2.6-0.5-2.6-1.6c0-0.7,0.4-1.4,1.2-2.2l14.9-15h-16.7v-4h21&#xA;&#x9;&#x9;c0.7,0,1.3,0.1,1.8,0.4c0.6,0.3,0.9,0.8,0.9,1.5c0,0.7-0.3,1.3-1,2l-14.9,15h16.7V30.1"></path>
&#x9;<polygon id="Fill-11" fill="#2D2D33" points="237.1,30.1 241.1,30.1 241.1,7.3 237.1,7.3 &#x9;"></polygon>
&#x9;<path id="Fill-12" fill="#2D2D33" d="M269.2,28.1c0,1.5-0.5,2.2-1.5,2.2c-0.7,0-1.6-0.5-2.5-1.4l-14.6-14.7v15.8h-3.9V9.2&#xA;&#x9;&#x9;c0-0.5,0.1-1,0.4-1.4c0.3-0.4,0.7-0.6,1.2-0.6c0.7,0,1.5,0.4,2.3,1.2l14.6,14.7V7.3h4V28.1"></path>
&#x9;<path id="Fill-13" fill="#2D2D33" d="M300,30.1h-14.5c-3.3,0-6.1-1.1-8.2-3.3c-2.2-2.2-3.3-5-3.3-8.3c0-3.3,1.1-6,3.2-8.1&#xA;&#x9;&#x9;c2.1-2,4.9-3.1,8.3-3.1h12.8v4h-12.8c-2.2,0-4,0.7-5.4,2.1c-1.4,1.4-2.1,3.2-2.1,5.4c0,2.2,0.7,4,2.1,5.3c1.4,1.4,3.2,2,5.4,2H296&#xA;&#x9;&#x9;v-5h-10.8v-3.6H300V30.1"></path>
&#x9;<path id="Fill-14" fill="#2D2D33" d="M130.4,46.4c0,1-0.4,1.9-1.1,2.5c-0.7,0.6-1.6,0.9-2.7,0.9h-8.4v-1.9h8.4c0.5,0,1-0.1,1.4-0.4&#xA;&#x9;&#x9;c0.4-0.3,0.7-0.7,0.7-1.2c0-0.5-0.2-0.9-0.7-1.1c-0.4-0.2-0.8-0.3-1.4-0.3h-5.2c-1,0-1.8-0.3-2.4-0.8c-0.7-0.6-1-1.3-1-2.3&#xA;&#x9;&#x9;c0-0.9,0.3-1.7,1-2.2c0.6-0.5,1.4-0.8,2.4-0.8h8.3v1.9h-8.3c-0.4,0-0.7,0.1-0.9,0.3c-0.3,0.2-0.4,0.5-0.4,0.8&#xA;&#x9;&#x9;c0,0.4,0.1,0.6,0.4,0.8c0.3,0.2,0.6,0.3,0.9,0.3h5.2c1.1,0,1.9,0.3,2.7,0.9C130,44.5,130.4,45.3,130.4,46.4"></path>
&#x9;<polyline id="Fill-15" fill="#2D2D33" points="149.8,38.8 144.4,46.1 144.4,49.8 142.5,49.8 142.5,46.1 136.9,38.8 139.4,38.8 &#xA;&#x9;&#x9;143.5,44.2 147.4,38.8 149.8,38.8 &#x9;"></polyline>
&#x9;<path id="Fill-16" fill="#2D2D33" d="M168.8,46.4c0,1-0.4,1.9-1.1,2.5c-0.7,0.6-1.6,0.9-2.7,0.9h-8.4v-1.9h8.4c0.5,0,1-0.1,1.4-0.4&#xA;&#x9;&#x9;c0.4-0.3,0.7-0.7,0.7-1.2c0-0.5-0.2-0.9-0.7-1.1c-0.4-0.2-0.8-0.3-1.4-0.3h-5.2c-1,0-1.8-0.3-2.4-0.8c-0.7-0.6-1-1.3-1-2.3&#xA;&#x9;&#x9;c0-0.9,0.3-1.7,1-2.2c0.6-0.5,1.4-0.8,2.4-0.8h8.3v1.9h-8.3c-0.4,0-0.7,0.1-0.9,0.3c-0.3,0.2-0.4,0.5-0.4,0.8&#xA;&#x9;&#x9;c0,0.4,0.1,0.6,0.4,0.8c0.3,0.2,0.6,0.3,0.9,0.3h5.2c1.1,0,1.9,0.3,2.7,0.9C168.4,44.5,168.8,45.3,168.8,46.4"></path>
&#x9;<polyline id="Fill-17" fill="#2D2D33" points="186.1,40.7 181.8,40.7 181.8,49.8 179.9,49.8 179.9,40.7 175.6,40.7 175.6,38.8 &#xA;&#x9;&#x9;186.1,38.8 186.1,40.7 &#x9;"></polyline>
&#x9;<path id="Fill-18" fill="#2D2D33" d="M195.9,45.1h6.3v-1.9h-6.3V45.1z M202.7,49.8h-9.5v-11h9.5v1.9h-7.6v7.2h7.6V49.8z"></path>
&#x9;<path id="Fill-19" fill="#2D2D33" d="M227,49.8h-2.2l-1.6-7.7l-3.7,7.1c-0.2,0.5-0.6,0.7-1,0.7c-0.5,0-0.9-0.2-1.1-0.7l-3.7-7.1&#xA;&#x9;&#x9;l-1.6,7.7H210l2.5-10.1c0.1-0.3,0.2-0.5,0.4-0.8c0.2-0.2,0.5-0.3,0.8-0.3c0.4,0,0.8,0.4,1.2,1.1l3.7,7.2l3.7-7.2&#xA;&#x9;&#x9;c0.4-0.7,0.8-1.1,1.2-1.1c0.3,0,0.5,0.1,0.8,0.3c0.2,0.2,0.3,0.4,0.4,0.7L227,49.8"></path>
&#x9;<path id="Fill-20" fill="#2D2D33" d="M246.7,46.4c0,1-0.4,1.9-1.1,2.5c-0.7,0.6-1.6,0.9-2.7,0.9h-8.4v-1.9h8.4c0.5,0,1-0.1,1.4-0.4&#xA;&#x9;&#x9;c0.4-0.3,0.7-0.7,0.7-1.2c0-0.5-0.2-0.9-0.7-1.1c-0.4-0.2-0.8-0.3-1.4-0.3h-5.2c-1,0-1.8-0.3-2.4-0.8c-0.7-0.6-1-1.3-1-2.3&#xA;&#x9;&#x9;c0-0.9,0.3-1.7,1-2.2c0.6-0.5,1.4-0.8,2.4-0.8h8.3v1.9h-8.3c-0.4,0-0.7,0.1-0.9,0.3c-0.3,0.2-0.4,0.5-0.4,0.8&#xA;&#x9;&#x9;c0,0.4,0.1,0.6,0.4,0.8c0.3,0.2,0.6,0.3,0.9,0.3h5.2c1.1,0,1.9,0.3,2.7,0.9C246.3,44.5,246.7,45.3,246.7,46.4"></path>
</g>
</svg>