<?xml version="1.0"?>


<svg version="1.1" id="Layer_1" xmlns="http://www.w3.org/2000/svg" xmlns:xlink="http://www.w3.org/1999/xlink" x="0px" y="0px" viewBox="0 0 147.6 40.5" enable-background="new 0 0 147.6 40.5" xml:space="preserve">
<g>
&#x9;<g>
&#x9;&#x9;<g>
&#x9;&#x9;&#x9;<path fill="#15A9DF" d="M89.3,31.4h1.2L89,37.1h-1.2l-0.5-2.4c-0.1-0.6-0.2-1.2-0.3-1.8h0c-0.1,0.7-0.2,1.2-0.4,1.8L86,37.1h-1.2&#xA;&#x9;&#x9;&#x9;&#x9;l-1.3-5.8h1.2l0.5,2.5c0.1,0.7,0.2,1.4,0.3,2h0c0.1-0.6,0.2-1.3,0.4-2l0.5-2.5h1.1l0.5,2.5c0.1,0.7,0.2,1.3,0.3,2h0&#xA;&#x9;&#x9;&#x9;&#x9;c0.1-0.7,0.2-1.3,0.3-2L89.3,31.4z"></path>
&#x9;&#x9;&#x9;<path fill="#15A9DF" d="M91.6,32.4c-0.4,0-0.6-0.3-0.6-0.6c0-0.3,0.3-0.6,0.6-0.6c0.4,0,0.6,0.2,0.6,0.6&#xA;&#x9;&#x9;&#x9;&#x9;C92.3,32.2,92,32.4,91.6,32.4z M92.2,32.9v4.2h-1.2v-4.2H92.2z"></path>
&#x9;&#x9;&#x9;<path fill="#15A9DF" d="M94.3,33.5c0.2-0.3,0.6-0.7,1.3-0.7c0.8,0,1.4,0.5,1.4,1.7v2.5h-1.2v-2.4c0-0.5-0.2-0.9-0.7-0.9&#xA;&#x9;&#x9;&#x9;&#x9;c-0.3,0-0.7,0.2-0.7,0.9v2.5h-1.2v-2.9c0-0.5,0-0.9,0-1.2h1L94.3,33.5L94.3,33.5z"></path>
&#x9;&#x9;&#x9;<path fill="#15A9DF" d="M101.8,31.1v4.8c0,0.4,0,0.9,0,1.2h-1l-0.1-0.6h0c-0.2,0.4-0.7,0.7-1.2,0.7c-1,0-1.7-0.9-1.7-2.1&#xA;&#x9;&#x9;&#x9;&#x9;c0-1.4,0.8-2.2,1.8-2.2c0.5,0,0.9,0.2,1,0.5h0v-2.3H101.8z M100.6,34.6c0-0.6-0.4-0.9-0.8-0.9c-0.6,0-0.9,0.6-0.9,1.3&#xA;&#x9;&#x9;&#x9;&#x9;c0,0.8,0.3,1.3,0.9,1.3c0.3,0,0.8-0.2,0.8-0.9V34.6z"></path>
&#x9;&#x9;&#x9;<path fill="#15A9DF" d="M106.6,35c0,1.6-1.1,2.2-2,2.2c-1.2,0-2-0.8-2-2.1c0-1.4,0.9-2.2,2.1-2.2C105.9,32.9,106.6,33.7,106.6,35&#xA;&#x9;&#x9;&#x9;&#x9;z M104.6,33.7c-0.6,0-0.9,0.7-0.9,1.4c0,0.7,0.3,1.4,0.9,1.4c0.5,0,0.8-0.6,0.8-1.4C105.4,34.4,105.2,33.7,104.6,33.7z"></path>
&#x9;&#x9;&#x9;<path fill="#15A9DF" d="M112,32.9h1.1l-1.3,4.2h-1l-0.4-1.6c-0.1-0.4-0.2-0.8-0.3-1.3h0c-0.1,0.5-0.2,0.9-0.3,1.3l-0.5,1.6h-1&#xA;&#x9;&#x9;&#x9;&#x9;l-1.2-4.2h1.2l0.4,1.8c0.1,0.4,0.2,0.9,0.2,1.3h0c0.1-0.4,0.2-0.9,0.3-1.3l0.5-1.8h0.9l0.5,1.8c0.1,0.5,0.2,0.9,0.3,1.4h0&#xA;&#x9;&#x9;&#x9;&#x9;c0.1-0.4,0.1-0.9,0.2-1.4L112,32.9z"></path>
&#x9;&#x9;&#x9;<path fill="#15A9DF" d="M115.5,35.9c0.3,0.2,0.8,0.3,1.3,0.3c0.6,0,1-0.3,1-0.7c0-0.4-0.3-0.7-1-0.9c-0.9-0.4-1.5-0.9-1.5-1.7&#xA;&#x9;&#x9;&#x9;&#x9;c0-0.9,0.8-1.7,2.1-1.7c0.6,0,1,0.1,1.3,0.3l-0.2,0.9c-0.2-0.1-0.6-0.2-1.1-0.2c-0.6,0-0.9,0.3-0.9,0.6c0,0.4,0.3,0.6,1,0.9&#xA;&#x9;&#x9;&#x9;&#x9;c1,0.4,1.4,0.9,1.4,1.7c0,1-0.8,1.7-2.2,1.7c-0.6,0-1.2-0.2-1.5-0.3L115.5,35.9z"></path>
&#x9;&#x9;&#x9;<path fill="#15A9DF" d="M122.1,32.9h1.2l-1,2.9c-0.5,1.3-0.9,2.1-1.3,2.5c-0.4,0.4-0.9,0.5-1.1,0.6l-0.3-0.9&#xA;&#x9;&#x9;&#x9;&#x9;c0.2-0.1,0.4-0.2,0.6-0.3c0.4-0.3,0.6-0.7,0.6-0.8c0,0,0-0.1,0-0.2l-1.5-3.8h1.3l0.6,2.2c0.1,0.3,0.1,0.5,0.2,0.8h0&#xA;&#x9;&#x9;&#x9;&#x9;c0-0.2,0.1-0.5,0.2-0.8L122.1,32.9z"></path>
&#x9;&#x9;&#x9;<path fill="#15A9DF" d="M123.8,36.1c0.2,0.1,0.7,0.3,1,0.3c0.4,0,0.6-0.2,0.6-0.4c0-0.3-0.1-0.4-0.6-0.6&#xA;&#x9;&#x9;&#x9;&#x9;c-0.8-0.3-1.1-0.8-1.1-1.2c0-0.7,0.6-1.3,1.6-1.3c0.4,0,0.8,0.1,1.1,0.2l-0.2,0.8c-0.2-0.1-0.5-0.2-0.8-0.2&#xA;&#x9;&#x9;&#x9;&#x9;c-0.4,0-0.5,0.2-0.5,0.4c0,0.2,0.2,0.4,0.7,0.6c0.7,0.3,1.1,0.7,1.1,1.3c0,0.8-0.6,1.3-1.7,1.3c-0.5,0-0.9-0.1-1.2-0.3&#xA;&#x9;&#x9;&#x9;&#x9;L123.8,36.1z"></path>
&#x9;&#x9;&#x9;<path fill="#15A9DF" d="M127.5,32.9v-0.8l1.1-0.3v1.1h1v0.8h-1v1.8c0,0.5,0.2,0.7,0.5,0.7c0.2,0,0.3,0,0.4,0l0,0.8&#xA;&#x9;&#x9;&#x9;&#x9;c-0.2,0.1-0.4,0.1-0.8,0.1c-1.3,0-1.3-1-1.3-1.5v-1.9H127v-0.8H127.5z"></path>
&#x9;&#x9;&#x9;<path fill="#15A9DF" d="M131.2,35.4c0,0.7,0.6,1,1.2,1c0.4,0,0.8-0.1,1.1-0.2l0.2,0.8c-0.4,0.1-0.9,0.2-1.4,0.2&#xA;&#x9;&#x9;&#x9;&#x9;c-1.3,0-2.1-0.8-2.1-2.1c0-1.2,0.7-2.2,2-2.2c1.1,0,1.7,0.7,1.7,2.1c0,0.2,0,0.3,0,0.4H131.2z M132.8,34.6c0-0.4-0.2-1-0.7-1&#xA;&#x9;&#x9;&#x9;&#x9;c-0.6,0-0.8,0.6-0.8,1H132.8z"></path>
&#x9;&#x9;&#x9;<path fill="#15A9DF" d="M138.1,33.6c0.4-0.5,0.8-0.7,1.3-0.7c0.8,0,1.3,0.5,1.3,1.7v2.5h-1.1v-2.4c0-0.6-0.2-1-0.6-1&#xA;&#x9;&#x9;&#x9;&#x9;c-0.3,0-0.7,0.2-0.7,0.8v2.5h-1.1v-2.5c0-0.5-0.2-0.9-0.6-0.9c-0.3,0-0.7,0.3-0.7,0.8v2.5h-1.1v-2.9c0-0.5,0-0.9,0-1.2h1l0.1,0.6&#xA;&#x9;&#x9;&#x9;&#x9;h0c0.2-0.3,0.6-0.6,1.2-0.6C137.5,32.9,137.9,33.1,138.1,33.6L138.1,33.6z"></path>
&#x9;&#x9;&#x9;<path fill="#15A9DF" d="M141.7,36.1c0.2,0.1,0.7,0.3,1,0.3c0.4,0,0.6-0.2,0.6-0.4c0-0.3-0.1-0.4-0.6-0.6&#xA;&#x9;&#x9;&#x9;&#x9;c-0.8-0.3-1.1-0.8-1.1-1.2c0-0.7,0.6-1.3,1.6-1.3c0.4,0,0.8,0.1,1.1,0.2l-0.2,0.8c-0.2-0.1-0.5-0.2-0.8-0.2&#xA;&#x9;&#x9;&#x9;&#x9;c-0.4,0-0.5,0.2-0.5,0.4c0,0.2,0.2,0.4,0.7,0.6c0.7,0.3,1.1,0.7,1.1,1.3c0,0.8-0.6,1.3-1.7,1.3c-0.5,0-0.9-0.1-1.2-0.3&#xA;&#x9;&#x9;&#x9;&#x9;L141.7,36.1z"></path>
&#x9;&#x9;</g>
&#x9;</g>
&#x9;<g>
&#x9;&#x9;<g>
&#x9;&#x9;&#x9;<path fill="#231C34" d="M79.1,15.1c0,8.6-4.6,13-11,13c-6.8,0-10.7-5.5-10.7-12.6c0-7.4,4.3-12.8,11-12.8&#xA;&#x9;&#x9;&#x9;&#x9;C75.6,2.6,79.1,8.5,79.1,15.1z M62.7,15.3c0,4.8,2,8.8,5.6,8.8c3.7,0,5.6-3.9,5.6-8.9c0-4.5-1.8-8.7-5.6-8.7&#xA;&#x9;&#x9;&#x9;&#x9;C64.5,6.5,62.7,10.8,62.7,15.3z"></path>
&#x9;&#x9;&#x9;<path fill="#231C34" d="M97.9,9.8v12.4c0,2.1,0.1,3.9,0.2,5.5h-4.3l-0.2-2.4h-0.1C92.6,26.5,90.9,28,88,28c-3.6,0-6-2.2-6-7.6&#xA;&#x9;&#x9;&#x9;&#x9;V9.8h5v9.9c0,2.7,0.8,4.4,2.9,4.4c1.6,0,3.1-1.3,3.1-3.3v-11H97.9z"></path>
&#x9;&#x9;&#x9;<path fill="#231C34" d="M105.6,20.2c0.1,3,2.4,4.3,5.1,4.3c1.8,0,3.3-0.3,4.6-0.7L116,27c-1.5,0.6-3.7,1-6,1&#xA;&#x9;&#x9;&#x9;&#x9;c-5.8,0-9.1-3.5-9.1-9c0-5.1,3.1-9.6,8.6-9.6c4.5,0,7.5,3.1,7.5,8.9c0,0.7,0,1.4-0.1,1.9H105.6z M112.3,16.9&#xA;&#x9;&#x9;&#x9;&#x9;c0-1.9-0.7-4.1-3.2-4.1c-2.4,0-3.4,2.4-3.5,4.1H112.3z"></path>
&#x9;&#x9;&#x9;<path fill="#231C34" d="M119.7,23.4c1,0.5,2.8,1.2,4.4,1.2c1.7,0,2.6-0.7,2.6-1.8c0-1.1-0.6-1.7-2.7-2.5&#xA;&#x9;&#x9;&#x9;&#x9;c-3.5-1.3-4.8-3.2-4.8-5.2c0-3.2,2.7-5.6,6.8-5.6c1.9,0,3.6,0.4,4.6,1l-0.9,3.3c-0.8-0.4-2.1-0.9-3.5-0.9c-1.5,0-2.3,0.7-2.3,1.7&#xA;&#x9;&#x9;&#x9;&#x9;c0,1,0.7,1.5,2.9,2.4c3.2,1.3,4.6,3,4.6,5.5c0,3.4-2.7,5.6-7.4,5.6c-2,0-4-0.5-5.3-1.2L119.7,23.4z"></path>
&#x9;&#x9;&#x9;<path fill="#231C34" d="M135.5,9.8V5.2l4.9-2.6v7.2h7.1l-6.5,3.5h-0.7v7.8c0,2.1,0.7,3,2.2,3c0.7,0,1.1-0.1,1.6-0.2l0.1,3.6&#xA;&#x9;&#x9;&#x9;&#x9;c-0.7,0.3-1.9,0.4-3.3,0.4c-5.4,0-5.5-4.5-5.5-6.4v-8.2h-2.5V9.8H135.5z"></path>
&#x9;&#x9;</g>
&#x9;&#x9;<polygon fill="#231C34" points="80.5,32.5 68.8,26.4 68.8,21.3 80.5,27.5 &#x9;&#x9;"></polygon>
&#x9;</g>
</g>
<g>
&#x9;<polygon fill="#E2E000" points="49.2,23.6 24.6,10.6 24.6,0 49.2,12.9 &#x9;"></polygon>
&#x9;<polygon fill="#ADA400" points="0,23.6 24.6,10.6 24.6,0 0,12.9 &#x9;"></polygon>
&#x9;<polygon fill="#E2E000" points="24.6,36.5 0,23.6 0,13 24.6,25.9 &#x9;"></polygon>
&#x9;<polygon fill="#ADA400" points="24.6,36.5 28.8,34.1 28.8,23.5 24.6,25.9 &#x9;"></polygon>
&#x9;<polygon fill="#ADA400" points="34.6,20.5 49.2,13 49.2,23.6 34.6,31.1 &#x9;"></polygon>
&#x9;<polygon fill="#E2E000" points="28.8,23.5 35.1,26.8 35.1,37.5 28.8,34.1 &#x9;"></polygon>
</g>
</svg>